<svg width="34" height="33" viewBox="0 0 34 33" fill="none" xmlns="http://www.w3.org/2000/svg">
  <style>
    path { stroke: #1a1a1a; }
    @media (prefers-color-scheme: dark) {
      path { stroke: #ffffff; }
    }
  </style>
  <path d="M14.8105 13.8818C13.9852 12.8169 12.6652 10.0584 13.9869 7.54268C15.3086 5.027 16.4843 1.71603 16.9069 0.375C17.375 1.875 17.8053 3.42975 19.6971 5.98536C21.5888 8.54097 22.3675 11.0217 21.484 14.93" stroke-width="0.75" stroke-linecap="round" stroke-linejoin="round"/>
  <path d="M13.168 14.7124C12.6491 14.3654 11.6199 13.6373 10.3179 13.2799C8.95417 12.9056 7.29593 12.9161 5.83064 13.205C2.81888 13.7988 0.375 16.3396 0.375 16.3396C1.53802 16.2648 2.58843 17.401 3.879 18.4161C5.09774 19.3746 6.10685 21.0844 7.0785 21.2162C9.07906 21.4878 11.5425 21.3294 12.5241 21.2162" stroke-width="0.75" stroke-linecap="round" stroke-linejoin="round"/>
  <path d="M12.4248 22.4669C11.3683 23.0043 9.36104 25.7383 9.78431 32.3749C10.2502 32.0221 10.2236 31.7609 11.4614 31.132C12.6993 30.5031 14.0421 30.2616 15.2849 29.6745C16.5276 29.0874 19.1931 26.9412 19.293 24.9526M13.9222 19.2175C13.5878 19.2923 13.521 19.6787 13.5878 20.0411C13.6545 20.4034 13.9043 20.7311 14.0719 20.7848C14.2396 20.8384 14.5312 20.7941 14.6659 20.3505C14.8706 19.6767 14.2566 19.1426 13.9222 19.2175Z" stroke-width="0.75" stroke-linecap="round" stroke-linejoin="round"/>
  <path d="M20.6541 17.9248C21.0584 17.0912 22.7156 15.0248 24.1531 14.6754C25.5422 14.3377 29.2294 15.8883 32.9979 21.2191C32.9979 21.2191 29.5688 21.9459 27.7469 23.001C25.925 24.0562 22.8903 25.5766 21.877 25.3919C20.8637 25.2073 19.9403 23.2656 19.5859 21.3289" stroke-width="0.75" stroke-linecap="round" stroke-linejoin="round"/>
  <path d="M16.7262 18.4889C16.6042 18.2161 16.6754 17.9132 16.9259 17.7502C17.246 17.5419 17.7492 17.7924 17.8094 18.1695C17.8597 18.4851 17.6606 18.7922 17.3452 18.8433C17.0702 18.8879 16.8399 18.7432 16.7262 18.4889Z" stroke-width="0.75" stroke-linecap="round" stroke-linejoin="round"/>
  <path d="M17.1805 20.8848C17.084 20.6357 17.1541 20.2827 17.425 20.1411C17.696 19.9995 18.1821 20.2495 18.2436 20.5803C18.3051 20.9112 18.0063 21.2651 17.7395 21.2791C17.4727 21.2932 17.2769 21.134 17.1805 20.8848Z" stroke-width="0.75" stroke-linecap="round" stroke-linejoin="round"/>
  <path d="M18.2087 16.5223C18.0085 16.3187 17.9386 15.8098 18.2087 15.534C18.4787 15.2583 19.4457 15.7869 19.4166 16.0931C19.3875 16.3992 19.1907 16.6191 18.9175 16.702C18.6442 16.7849 18.4089 16.7259 18.2087 16.5223Z" stroke-width="0.75" stroke-linecap="round" stroke-linejoin="round"/>
  <path d="M14.0259 16.0931C13.9955 15.765 14.2522 15.438 14.6099 15.3593C14.9675 15.2807 15.5511 15.6693 15.5133 16.0931C15.4755 16.5169 14.9319 16.7717 14.6099 16.702C14.2878 16.6323 14.0562 16.4212 14.0259 16.0931Z" stroke-width="0.75" stroke-linecap="round" stroke-linejoin="round"/>
</svg>
